<svg width="20mm" height="30mm" viewBox="0 0 20 30" xmlns="http://www.w3.org/2000/svg"><g transform="matrix(.4912 0 0 .46422 -63.927 -33.498)"><rect style="opacity:1;fill:#fff;fill-opacity:1;stroke:#af8d70;stroke-width:1.1;stroke-opacity:1" width="4.131" height="39.758" x="136.005" y="108.019" rx="1.2" transform="matrix(1.14926 0 0 1.21288 -13.375 -49.94)"/><rect style="opacity:1;fill:#af8d70;fill-opacity:1;stroke:#af8d70;stroke-width:1.01555;stroke-miterlimit:4;stroke-dasharray:none;stroke-opacity:1" width="1.033" height="13.735" x="127.905" y="-140.571" rx="1.2" transform="matrix(-.00528 1.21286 -1.14925 -.00557 -13.375 -49.94)"/><rect style="opacity:1;fill:#af8d70;fill-opacity:1;stroke:#af8d70;stroke-width:1.01555;stroke-miterlimit:4;stroke-dasharray:none;stroke-opacity:1" width="1.033" height="13.735" x="122.329" y="-140.546" rx="1.2" transform="matrix(-.00528 1.21286 -1.14925 -.00557 -13.375 -49.94)"/><rect style="opacity:1;fill:#af8d70;fill-opacity:1;stroke:#af8d70;stroke-width:1.01555;stroke-miterlimit:4;stroke-dasharray:none;stroke-opacity:1" width="1.033" height="13.735" x="117.165" y="-140.625" rx="1.2" transform="matrix(-.00528 1.21286 -1.14925 -.00557 -13.375 -49.94)"/><rect style="opacity:1;fill:#af8d70;fill-opacity:1;stroke:#af8d70;stroke-width:1.01555;stroke-miterlimit:4;stroke-dasharray:none;stroke-opacity:1" width="1.033" height="13.735" x="112.415" y="-140.603" rx="1.2" transform="matrix(-.00528 1.21286 -1.14925 -.00557 -13.375 -49.94)"/><rect style="opacity:1;fill:#af8d70;fill-opacity:1;stroke:#af8d70;stroke-width:1.01555;stroke-miterlimit:4;stroke-dasharray:none;stroke-opacity:1" width="1.033" height="13.735" x="107.374" y="-140.63" rx="1.2" transform="matrix(-.00528 1.21286 -1.14925 -.00557 -13.375 -49.94)"/><ellipse style="opacity:1;fill:none;fill-opacity:1;stroke:#af8d70;stroke-width:1;stroke-miterlimit:4;stroke-dasharray:none;stroke-opacity:1" cx="157.155" cy="126.547" rx="3.459" ry="3.201"/><ellipse style="opacity:1;fill:none;fill-opacity:1;stroke:#af8d70;stroke-width:1;stroke-miterlimit:4;stroke-dasharray:none;stroke-opacity:1" cx="165.966" cy="126.65" rx="3.459" ry="3.201"/><path style="opacity:1;fill:#af8d70;fill-opacity:1;stroke:#af8d70;stroke-width:.098;stroke-miterlimit:4;stroke-dasharray:none;stroke-opacity:1" d="M158.285 115.148h.916v8.454h-.916zm5.641.016h.916v8.454h-.916z"/><path style="opacity:1;fill:#fff;fill-opacity:1;stroke:#af8d70;stroke-width:6.61802;stroke-miterlimit:4;stroke-dasharray:none;stroke-opacity:1" transform="matrix(.0669 0 0 .3951 120.929 -32.336)" d="m558.048 373.412 49.07-85.185 49.237 85.089z"/><rect style="opacity:1;fill:#af8d70;fill-opacity:1;stroke:#af8d70;stroke-width:.436492;stroke-opacity:1" width=".578" height="3.776" x="71.209" y="200.257" rx=".515" transform="matrix(.83655 -.54789 .53916 .8422 0 0)"/></g></svg>