<svg width="20mm" height="30mm" viewBox="0 0 20 30" xmlns="http://www.w3.org/2000/svg"><g style="stroke-width:1;stroke-miterlimit:4;stroke-dasharray:none"><g transform="matrix(.04288 -.26749 .2506 .02305 1.227 75.77)" style="stroke-width:1.41243;stroke-miterlimit:4;stroke-dasharray:none"><path style="fill:none;fill-opacity:1;stroke:#af8d70;stroke-width:1.41243;stroke-miterlimit:4;stroke-dasharray:none;stroke-opacity:1" d="M195.715-10.75c-.835 1.041-4.07 3.217-5.01 2.358-.938-.86.775-4.429 1.61-5.47.835-1.042 2.274-1.19 3.212-.33.94.86 1.023 2.4.188 3.442z"/><path style="fill:#af8d70;fill-opacity:1;stroke:#af8d70;stroke-width:1.41277;stroke-miterlimit:4;stroke-dasharray:none;stroke-opacity:1" transform="matrix(.74915 .6624 -.63875 .76941 0 0)" d="M140.86-151.524h1.28v11.678h-1.28z"/><rect style="fill:none;fill-opacity:1;stroke:#af8d70;stroke-width:1.41394;stroke-miterlimit:4;stroke-dasharray:none;stroke-opacity:1" width="11.947" height="17.009" x="138.253" y="-170.884" rx="2.642" transform="matrix(.73759 .67525 -.62556 .78018 0 0)"/></g><path style="fill:none;fill-opacity:.890196;stroke:#af8e70;stroke-width:1;stroke-linecap:butt;stroke-linejoin:miter;stroke-miterlimit:4;stroke-dasharray:none;stroke-opacity:.890196" d="m355.67 209.96-1.492 21.873a16.723 16.723 0 0 0-4.49 8.331c-.649 3.118-.397 6.39-1.241 9.46-1.162 4.223-4.488 7.788-8.62 9.24l13.19-1.586 5.416-10.211 4.562-5.705a7.37 7.37 0 0 0 4.898-2.905 7.315 7.315 0 0 0 1.35-3.352 7.316 7.316 0 0 0-.43-3.589 7.315 7.315 0 0 0-2.103-2.94 7.315 7.315 0 0 0-3.258-1.565l8.822-17.497z" transform="matrix(.37001 0 0 .36675 -118.49 -70.239)"/></g></svg>