<svg width="20mm" height="30mm" viewBox="0 0 20 30" xmlns="http://www.w3.org/2000/svg"><path style="fill:none;fill-opacity:.890196;stroke:#af8e70;stroke-width:1.4;stroke-linecap:butt;stroke-linejoin:miter;stroke-miterlimit:4;stroke-dasharray:none;stroke-opacity:.890196" d="m312.697 234.626 15.593-8.984 4.028 4.234 3.51-4.131 15.801 8.261-10.74 6.816-17.865.103z" transform="matrix(.4411 0 0 .48092 -136.242 -101.84)"/><path style="fill:#af8e70;fill-opacity:.890196;stroke:#af8e70;stroke-width:.865;stroke-linecap:butt;stroke-linejoin:miter;stroke-miterlimit:4;stroke-dasharray:none;stroke-opacity:.890196" d="m312.697 234.626 38.932-.62" transform="matrix(.4411 0 0 .48092 -136.242 -101.84)"/><path style="opacity:1;fill:#af8e70;fill-opacity:.890196;stroke:#af8e70;stroke-width:.159666;stroke-miterlimit:4;stroke-dasharray:none;stroke-opacity:.890196" d="M347.808 245.69h.348v8.001h-.348z" transform="matrix(.2173 .11942 -.14907 .32244 -32.227 -108.142)"/><path style="opacity:1;fill:none;fill-opacity:.890196;stroke:#af8e70;stroke-width:1.418;stroke-miterlimit:4;stroke-dasharray:none;stroke-opacity:.890196" d="M345.844 254.377h4.337v4.544h-4.337zm-1.779 4.569h7.9v16.626h-7.9z" transform="matrix(.2173 .11942 -.14907 .32244 -32.227 -108.142)"/><path style="opacity:1;fill:none;fill-opacity:.890196;stroke:#af8e70;stroke-width:1.45535;stroke-miterlimit:4;stroke-dasharray:none;stroke-opacity:.890196" d="M345.083 276.966h5.893v6.829h-5.893z" transform="matrix(.2173 .11942 -.14907 .32244 -32.227 -108.142)"/><path style="fill:#af8e70;fill-opacity:.890196;stroke:#af8e70;stroke-width:.6;stroke-linecap:butt;stroke-linejoin:miter;stroke-miterlimit:4;stroke-dasharray:none;stroke-opacity:.890196" d="m344.606 263.811 3.926-.024m-3.899 4.46 3.926-.024m-3.927-2.14 3.925-.024" transform="matrix(.2173 .11942 -.14907 .32244 -32.227 -108.142)"/></svg>