<svg width="20mm" height="30mm" viewBox="0 0 20 30" xmlns="http://www.w3.org/2000/svg"><g style="fill:none;fill-opacity:1;stroke:#af8d70;stroke-width:2.78959;stroke-miterlimit:4;stroke-dasharray:none;stroke-opacity:1"><path style="fill:none;fill-opacity:1;stroke:#af8d70;stroke-width:2.78959;stroke-linecap:butt;stroke-linejoin:miter;stroke-miterlimit:4;stroke-dasharray:none;stroke-opacity:1" d="M331.227-68.348c9.35 10.227 13.58 24.921 11.1 38.555-1.795 9.858-6.828 18.865-12.853 26.872-3.135 4.167-6.56 8.124-9.423 12.483-2.862 4.36-5.173 9.208-5.765 14.39-.565 4.947.482 9.986 2.41 14.578 1.926 4.592 4.717 8.761 7.52 12.877l13.729 20.154m58.686-142.789a35.914 35.914 0 0 0-10.486 10.044c-6.07 8.824-7.88 19.904-8.155 30.61-.102 3.995-.013 8.007.582 11.958 1.455 9.659 6.004 18.827 12.816 25.828 7.447 9.468 11.718 21.391 11.977 33.435a56.326 56.326 0 0 1-6.423 27.28l-13.718 24.37m-21.62-54.91a43.476 43.476 0 0 1 4.09 20.446c-.096 2.068-.34 4.135-.877 6.134-1.33 4.96-4.503 9.401-8.763 12.268" transform="matrix(.16012 0 0 .17595 -48.055 13.067)"/><path style="fill:none;fill-opacity:1;stroke:#af8d70;stroke-width:2.78959;stroke-linecap:butt;stroke-linejoin:miter;stroke-miterlimit:4;stroke-dasharray:none;stroke-opacity:1" d="M339.569-56.048c.407 3.018 2.362 5.786 5.07 7.179a9.454 9.454 0 0 0 4.694 1.038 9.26 9.26 0 0 0 4.583-1.443c.939-.601 1.762-1.372 2.481-2.224a14.38 14.38 0 0 0 2.481-4.247m23.829-.363c-.488 3.136-2.552 5.986-5.379 7.429a10.086 10.086 0 0 1-4.977 1.09 9.984 9.984 0 0 1-4.866-1.509c-.991-.621-1.867-1.417-2.633-2.301a14.813 14.813 0 0 1-2.632-4.395" transform="matrix(.16012 0 0 .17595 -48.055 13.067)"/></g></svg>