<svg width="20mm" height="30mm" viewBox="0 0 20 30" xmlns="http://www.w3.org/2000/svg"><g transform="matrix(.56892 0 0 .60127 -90.74 -92.933)"><path style="fill:none;stroke:#af8d70;stroke-width:.703665;stroke-linecap:butt;stroke-linejoin:miter;stroke-miterlimit:4;stroke-dasharray:none;stroke-opacity:1" d="M176.747 164.031a8.52 8.52 0 0 0-3.835-4.725 8.366 8.366 0 0 0-3.966-1.1 8.163 8.163 0 0 0-4 .957 8.113 8.113 0 0 0-3.835 4.582l4.573 10.31 6.122-.144z"/><rect style="opacity:1;fill:#fff;fill-opacity:1;stroke:#af8d70;stroke-width:1.06557;stroke-miterlimit:4;stroke-dasharray:none;stroke-opacity:1" width="6.73" height="27.689" x="165.374" y="174.054" rx="1.569"/><rect style="opacity:1;fill:#fff;fill-opacity:1;stroke:#af8d70;stroke-width:1.15019;stroke-miterlimit:4;stroke-dasharray:none;stroke-opacity:1" width="9.707" height="20.356" x="182.579" y="181.224" rx="1.3"/><rect style="opacity:1;fill:#fff;fill-opacity:1;stroke:#af8d70;stroke-width:.998796;stroke-miterlimit:4;stroke-dasharray:none;stroke-opacity:1" width="7.272" height="11.786" x="183.818" y="169.288" rx="1.204"/><path style="fill:none;stroke:#af8d70;stroke-width:.524152;stroke-linecap:butt;stroke-linejoin:miter;stroke-miterlimit:4;stroke-dasharray:none;stroke-opacity:1" d="m189.46 168.927.257-10.18a4.89 4.89 0 0 0-3.327.665 4.078 4.078 0 0 0-1.023.885 3.571 3.571 0 0 0-.64 3.208l.64 5.422z"/></g></svg>