<svg width="20mm" height="30mm" viewBox="0 0 20 30" xmlns="http://www.w3.org/2000/svg"><g transform="matrix(.296 .24598 -.2316 .26219 7.449 -50.15)"><path style="opacity:1;fill:none;fill-opacity:1;stroke:#af8d70;stroke-width:.809792;stroke-opacity:1" d="M110.635 133.983c0 1.589-1.28 6.108-2.677 6.108s-2.383-4.52-2.383-6.108c0-1.589 1.133-2.877 2.53-2.877 1.397 0 2.53 1.288 2.53 2.877z"/><path style="opacity:1;fill:#af8d70;fill-opacity:1;stroke:#af8d70;stroke-width:.879175;stroke-opacity:1" transform="matrix(.99982 -.01875 -.01572 .99988 0 0)" d="M109.576 119.721h1.407v13.911h-1.407z"/><rect style="opacity:1;fill:none;fill-opacity:1;stroke:#af8d70;stroke-width:1.12019;stroke-opacity:1" width="13.115" height="20.241" x="101.823" y="97.692" rx="2.9"/></g><g transform="matrix(.3547 0 0 .31266 -59.7 -33.583)"><rect style="opacity:1;fill:none;stroke:#af8d70;stroke-width:1.00007;stroke-opacity:1" width="16.933" height="43.954" x="174.562" y="156.705" rx="3.811" ry="4.984"/><rect style="opacity:1;fill:#fff;fill-opacity:1;stroke:#af8d70;stroke-width:.498084;stroke-opacity:1" width="11.523" height="18.12" x="177.366" y="149.151" rx="3.01" ry="2.023"/></g></svg>