<svg width="26" height="26" fill="none" xmlns="http://www.w3.org/2000/svg"><path d="M18.534 1H7.466A6.466 6.466 0 0 0 1 7.466v11.068A6.466 6.466 0 0 0 7.466 25h11.068A6.466 6.466 0 0 0 25 18.534V7.466A6.466 6.466 0 0 0 18.534 1Z" stroke="#fff" stroke-width="2" stroke-miterlimit="10"/><path d="M13 18.793a5.793 5.793 0 1 0 0-11.586 5.793 5.793 0 0 0 0 11.586Z" stroke="#fff" stroke-width="2" stroke-miterlimit="10"/><path d="M20.035 7.207a1.241 1.241 0 1 0 0-2.483 1.241 1.241 0 0 0 0 2.483Z" fill="#fff"/></svg>