<svg width="306" height="144" fill="none" xmlns="http://www.w3.org/2000/svg"><path fill-rule="evenodd" clip-rule="evenodd" d="M146.46 12.473c-23.536 3.449-40.72 25.154-38.218 48.273 1.135 10.487 4.902 18.587 12.151 26.125 6.399 6.655 14.335 11.175 23.044 13.126 4.724 1.057 15.413 1.068 19.776.018 13.431-3.23 24.061-11.504 30.178-23.492 1.13-2.214 2.623-5.849 3.317-8.076 1.153-3.7 1.265-4.732 1.291-11.897.032-9.093-.64-12.216-4.171-19.383-8.573-17.4-28.006-27.531-47.368-24.694Zm4.073 3.31c-4.216 4.11-3.703 7.377 1.645 10.464 6.58 3.796 7.6 6.337 5.487 13.658-2.096 7.26.697 10.761 10.713 13.43 8.311 2.215 11.517 4.41 11.863 8.125.155 1.66.121 1.77-.191.629-.592-2.169-1.368-3.335-3.008-4.523-1.96-1.42-3.406-1.945-8.549-3.105-7.106-1.604-11.34-4.035-13.24-7.602-1.163-2.181-.958-6.009.497-9.332 2.206-5.034 1.41-7.684-3.001-10.002-3.931-2.066-5.479-3.367-5.819-4.89-.494-2.213.192-4.137 2.267-6.352l1.93-2.061-1.865.764c-2.371.972-2.948 1.55-3.75 3.768l-.652 1.798-.02-1.858c-.036-3.255 1.7-4.75 5.58-4.804l2.085-.03-1.972 1.923Zm15.986-.476c3.251 1.03 10.647 4.525 10.647 5.031 0 .18-.812.455-1.805.611-3.453.544-5.745 3.331-5.632 6.85.036 1.13.143 1.487.248.83.63-3.938 1.611-5.077 4.376-5.077 2.867 0 3.914 1.28 3.647 4.457-.457 5.414-5.297 8.368-10.726 6.546-2.922-.98-5.462-3.024-6.071-4.884-.783-2.392-1.174-2.772-3.207-3.11-2.681-.446-4.565-1.783-5.206-3.695-.671-2.003-.297-4.456.828-5.421 1.131-.97 2.954-1.86 3.239-1.58.131.13-.424.572-1.232.984-1.979 1.006-2.556 2.599-1.685 4.649.372.876.832 1.593 1.023 1.593.192 0 1.133-.855 2.094-1.9 1.458-1.586 1.8-2.355 2.072-4.66l.325-2.76 2.077.306c1.142.169 3.387.722 4.988 1.23Zm-24.525.977c-.498 1.078-.909 2.699-.915 3.6-.013 2.186-.655 2.774-2.342 2.147-1.144-.425-1.515-.326-2.811.747-1.687 1.397-2.462 1.532-3.274.569-.762-.905-.428-2.836.459-2.646.542.116.569.026.125-.419-.825-.827-2.012.282-2.012 1.88 0 1.563 1.635 3.698 2.831 3.698.488 0 1.629-.348 2.534-.773 1.54-.723 1.703-.723 2.514 0 1.206 1.075 2.094.967 3.302-.4 1.154-1.308 1.99-1.17 1.608.265-.401 1.512-1.824 1.926-8.065 2.346-7.451.503-10.931 1.137-13.615 2.482-4.332 2.171-6.084 5.395-6.099 11.225-.011 4.087-.571 5.864-1.712 5.433-.389-.147-.566-.061-.405.195.468.746 2.039.52 2.519-.364.245-.45.676-2.449.957-4.44.996-7.046 3.236-10.155 8.006-11.11l1.641-.328-2.16 1.374c-2.989 1.903-4.306 4.656-4.279 8.946.038 5.952 3.374 10.076 8.438 10.433 2.232.157 2.908.02 3.978-.813.709-.55 1.289-1.23 1.289-1.51s-.539-.01-1.198.6c-2.389 2.21-6.134 1.108-7.933-2.332-1.64-3.138-1.189-8.045 1.034-11.219 2.783-3.974 4.093-3.345 7.398 3.552 3.601 7.515 4.364 7.82 7.09 2.831l1.47-2.688.312 2.724c.794 6.925-2.143 16.744-5.486 18.338-1.728.824-3.902.244-4.355-1.162-.459-1.421.454-2.033 1.998-1.34 1.29.578 1.291.577.409-.382-1.063-1.156-2.925-1.246-4.101-.198-1.219 1.086-1.158 4.053.101 4.922.84.579.864.696.196.949-1.08.408-2.172.36-4.895-.215-2.925-.617-5.166-2.354-5.166-4.002 0-2.817 3.574-3.995 4.888-1.61.659 1.196.701 1.21.719.23.044-2.476-3.559-3.723-6.451-2.23-1.47.757-3.956 3.261-4.751 4.785-.465.892-.795 1.01-2.14.761-1.301-.24-1.8-.085-2.755.855l-1.167 1.148-.329-3.026c-1.756-16.144 7.519-33.156 22.603-41.46 2.304-1.27 9.77-4.256 10.807-4.324.052-.003-.313.877-.81 1.956Zm38.453 6.807c.516.508.931 1.287.924 1.73-.014.75-.05.749-.51-.03-.273-.462-1.164-1.24-1.979-1.73-1.33-.799-1.374-.89-.427-.891.58-.001 1.476.413 1.992.92Zm-30.237 5.207c1.289.635 2.761 1.608 3.271 2.164 1.383 1.506 1.226 4.148-.361 6.069-4.767 5.767-4.908 7.13-1.264 12.267 1.771 2.497 2.531 4.04 2.695 5.473.219 1.911.124 2.097-2.291 4.447-1.385 1.349-5.749 4.6-9.698 7.226-8.994 5.979-12.369 8.734-13.947 11.385-2.12 3.56-1.298 5.323 4.016 8.616l2.578 1.598v-4.65c0-4.269.112-4.85 1.358-7.064 1.136-2.017 3.687-5.046 3.022-3.587-.115.254-.589 1.282-1.052 2.286-2.802 6.073-1.755 13.555 2.698 19.29.937 1.205 1.56 2.192 1.386 2.192-.175 0-2.019-1.716-4.099-3.811-2.263-2.28-5.146-4.605-7.179-5.789-3.596-2.094-4.806-3.626-4.806-6.087 0-3.818 3.551-7.358 14.956-14.91 8.173-5.412 11.535-8.264 12.029-10.203.34-1.33-.52-3.167-3.231-6.91-2.966-4.094-2.934-7.924.097-11.7 3.506-4.366 3.566-5.53.374-7.109-2.575-1.272-5.005-3.086-5.005-3.735 0-.285.475-.09 1.055.434.579.524 2.109 1.472 3.398 2.108Zm34.122-.125c4.076 3.156-.48 9.448-7.819 10.8l-1.824.337 1.717 1.393c2.032 1.648 3.119 3.54 3.061 5.325-.04 1.225-.066 1.209-.505-.323-.727-2.54-3.055-4.564-7.773-6.759-4.551-2.117-5.538-2.785-2.579-1.745 4.094 1.438 9.285.17 13.054-3.189 2.283-2.035 2.805-3.718 1.597-5.15-.756-.898-2.533-.891-3.294.012-.47.557-.477.962-.032 1.923.501 1.083.483 1.152-.165.622-1.055-.861-.895-2.623.313-3.456 1.41-.973 2.812-.903 4.249.21Zm-38.846.436c2.475.565 4.224 1.924 4.405 3.422.107.889-.45 2.017-1.997 4.043-1.18 1.546-2.275 3.319-2.433 3.94-.492 1.93.093 4.857 1.683 8.42 2.75 6.163 1.466 10.564-3.877 13.296-1.967 1.006-3.08 1.247-5.817 1.263-2.998.016-3.507-.11-4.454-1.108-.587-.62-.72-.87-.294-.558 2.66 1.954 6.793 1.374 9.997-1.402 4.22-3.657 5.02-7.296 2.849-12.962-1.279-3.337-1.541-6.684-.652-8.327.3-.554 1.378-2.095 2.396-3.425 3.045-3.978 1.697-5.633-5.293-6.492-3.485-.43-3.491-.433-.93-.48 1.418-.028 3.406.14 4.417.37Zm-3.768 2.674c-.706 2.927-2.54 8.267-3.096 9.015-.536.72-.915.345-3.53-3.491-1.611-2.364-2.93-4.639-2.93-5.056 0-.94 2.78-1.618 6.923-1.688l2.939-.05-.306 1.27Zm46.232 3.339c-.325.774-1.747 2.446-3.159 3.717-2.92 2.627-2.886 2.853.722 4.935 2.212 1.276 5.975 1.68 7.826.838.836-.38.868-.342.296.35-2.124 2.57-7.74 1.752-11.601-1.69l-2.254-2.008 1.857-.865c2.252-1.05 5.739-4.476 6.135-6.03.159-.62.397-1.023.53-.892.132.13-.026.87-.352 1.645Zm4.678 2.907c.004.2-.4.148-.899-.115-1.08-.57-1.437-.6-1.437-.126 0 .194.474.557 1.054.808.638.275 1.112.94 1.199 1.68.281 2.39-3.635 3.645-5.535 1.775-1.201-1.183-1.196-1.227.47-3.692.772-1.142 1.64-2.776 1.928-3.631l.524-1.555 1.344 2.247c.739 1.236 1.347 2.41 1.352 2.61Zm-67.173-3.46c-1.446 1.572-2.325 4.44-2.361 7.702-.04 3.551-.65 2.486-.73-1.273-.065-3.104 1.868-7.254 3.38-7.254.258 0 .128.371-.289.825Zm44.135 6.144c1.107.065-1.285.774-2.804.83-1.026.039-1.368-.272-1.992-1.809-1.148-2.824-.953-2.935 1.632-.924 1.312 1.021 2.736 1.877 3.164 1.903Zm-6.933 1.454c1.149 3.108 1.464 3.191 5.692 1.5 1.586-.635 3.49-1.154 4.231-1.154 1.752 0 3.441 1.683 4.098 4.083.948 3.468-.622 5.948-2.398 3.788-.666-.809-.865-.88-.865-.307 0 1.019 1.593 2.502 3.085 2.87 2.714.671 6.291-2.723 6.291-5.969v-1.11l2.189 1.092c1.566.78 2.977 1.09 4.958 1.09 2.435 0 2.935-.162 4.137-1.345.752-.74 1.455-1.204 1.564-1.032.242.386 1.037 4.985 1.427 8.26.286 2.398.279 2.415-.795 1.933-1.693-.76-3.546.17-4.414 2.213-.639 1.507-.66 2.43-.162 7.271.313 3.05.495 6.688.404 8.084l-.167 2.538-.827-3.23c-2.699-10.536-8.43-16.6-19.433-20.563-10.182-3.669-12.124-5.179-12.034-9.355.028-1.314.314-3.011.636-3.773.67-1.584.623-1.645 2.383 3.116Zm-5.618 10.153c1.65 2.243 1.828 4.917.471 7.107-.495.8-2.555 2.817-4.577 4.484-4.324 3.563-6.599 6.36-8.601 10.57-3.223 6.781-2.032 15.352 2.903 20.885 3.474 3.895 9.773 4.893 9.773 1.549 0-.988-1.636-1.218-2.062-.29-.146.317-.215.161-.152-.346.134-1.087 1.932-1.497 2.943-.671 1.082.884.799 2.585-.612 3.684-1.06.826-1.687.958-3.533.746-8.008-.922-14.736-10.57-13.763-19.737.68-6.402 3.672-10.985 10.678-16.353 5.811-4.453 7.149-6.154 6.816-8.662-.13-.97-.8-2.602-1.49-3.629-1.585-2.36-.632-1.835 1.206.663Zm39.745 5.623c.095.491-.22 1.194-.699 1.562-.77.591-.775.637-.051.391.667-.226.821-.008.821 1.169 0 2.318-1.015 7.405-1.393 6.984-.521-.58-1.603-9.633-1.257-10.52.41-1.052 2.355-.74 2.579.414Zm-24.838 4.645c4.682 1.91 6.366 3.22 6.783 5.272.65 3.2-1.963 6.893-5.585 7.892-1.7.468-2.421.447-4.173-.12-2.406-.78-2.634-.528-.94 1.039 1.704 1.576 5.924 1.832 8.54.518 4.262-2.14 6.425-6.545 6.149-12.524-.162-3.513-.139-3.605.703-2.854 2.285 2.036 4.064 6.81 4.76 12.777.453 3.875-.012 3.049-1.134-2.016-.525-2.365-1.479-5.371-2.121-6.68l-1.166-2.38.335 1.846c.957 5.272-.07 9.083-3.257 12.09-3.063 2.89-7.907 3.822-11.397 2.192-1.957-.915-2.912-2.133-3.346-4.269l-.3-1.475 1.993.692c3.892 1.352 7.004.426 8.909-2.65 2.226-3.594.642-6.249-4.993-8.366-3.298-1.239-6.126-3.38-7.26-5.497-.31-.58.268-.202 1.33.868 1.324 1.335 3.144 2.41 6.17 3.645Zm-7.767-.877c1.04 1.14 3.327 2.743 5.503 3.858 5.134 2.63 5.91 4.545 2.637 6.51-1.795 1.078-3.496 1.139-4.893.175-1.302-.898-1.332-2.112-.079-3.228.816-.727 1.11-.768 1.921-.27 1.383.85 1.636.278.267-.605-3.179-2.05-6.821 3.16-5.488 7.849 2.238 7.866 13.376 9.676 19.221 3.124.801-.899 1.588-1.503 1.749-1.344.162.158.294 1.586.294 3.172 0 2.308-.271 3.375-1.355 5.335-1.549 2.801-3.07 3.761-5.96 3.761-2.464 0-4.223-1.079-4.021-2.467.121-.84.433-.984 2.002-.933l1.859.062-1.09-.87c-1.339-1.066-3.233-1.115-4.677-.12-.879.606-1.047 1.068-.887 2.423.11.921.288 1.979.396 2.35.154.529-.555.754-3.257 1.032-3.055.314-3.606.248-4.776-.572-1.832-1.284-3.662-5.201-4.442-9.508-.876-4.84-.868-13.541.014-16.78.381-1.396.695-3.041.698-3.655.003-.615.372-1.517.821-2.005.775-.843.839-.846 1.289-.067.26.452 1.275 1.7 2.254 2.773Zm-43.513 1.097c.442.481 1.786 1.353 2.986 1.939 1.932.943 2.864 1.065 8.15 1.068 6.247.004 6.194.489-.109.993-4.237.339-8.222-.389-10.512-1.918l-1.652-1.104-.535 1.94c-.574 2.077-.298 7.707.469 9.597l.451 1.11.03-1.1c.054-2.026 1.13-4.742 2.415-6.096 2.236-2.357 6.055-1.5 6.781 1.52.231.962.027 1.514-.897 2.423-1.333 1.313-2.084 1.45-3.267.6-.694-.5-.564-.577.965-.577 1.697 0 1.767-.063 1.767-1.565 0-2.098-1.169-2.85-2.934-1.887-3.035 1.657-3.941 7.774-1.811 12.22 1.286 2.685 2.352 3.724 5.997 5.84 2.486 1.445 11.614 9.621 10.741 9.621-.22 0-2.164-1.572-4.321-3.494-2.157-1.921-5.397-4.258-7.201-5.192-5.228-2.705-8.798-6.88-11.01-12.872-1.524-4.128-1.237-10.254.665-14.208l1.333-2.77.348 1.52c.191.835.71 1.911 1.151 2.392Zm-7.751 1.808c.261.48.688 2.726.948 4.988.535 4.648 1.717 8.403 3.776 11.994.773 1.348 1.328 2.45 1.233 2.45-.366 0-3.585-5.096-5.132-8.126-.894-1.75-2.058-4.603-2.586-6.341-.928-3.05-.931-3.153-.084-2.935.737.19.795.095.363-.586-.555-.876-.22-2.318.54-2.318.257 0 .681.394.942.874Zm41.386 3.404c-.84 3.46-.623 5.182 1.293 10.26 1.038 2.75 1.12 6.358.212 9.35-.262.863-.082 1.124 1.038 1.508.745.256 1.602.855 1.905 1.333.528.831.451.843-1.885.294-12.695-2.987-14.551-11.48-4.98-22.79 1.575-1.86 2.933-3.313 3.019-3.228.086.085-.184 1.558-.602 3.273Zm19.849 21.97c.705.546 2.121 1.125 3.146 1.286l1.866.294-1.116.856c-3.19 2.449-10.697 5.77-14.766 6.531-1.441.27-1.462.247-1.415-1.52.117-4.421-6.008-6.191-8.001-2.312-.45.877-.594.955-.6.325-.019-2.313 4.327-4.194 7.089-3.068 1.607.655 3.213 2.878 3.216 4.449.002 1.006.02 1.008 2.459.295 4.227-1.236 11.693-5.232 9.775-5.232-.98 0-3.794-2.88-3.765-3.855l.03-.99.4.974c.22.536.977 1.421 1.682 1.967Zm-46.251 25.131c-1.136.59-2.699 1.958-3.472 3.039-1.231 1.72-1.406 2.361-1.406 5.117 0 2.765.174 3.395 1.426 5.148 1.985 2.782 4.459 4.065 7.851 4.075 8.895.024 13.305-10.16 6.875-15.878-2.366-2.105-3.596-2.575-6.734-2.575-1.685 0-3.132.342-4.54 1.074Zm10.152 1.254c1.822 1.676 2.549 3.355 2.549 5.884 0 2.804-1.49 5.73-3.893 7.645-2.199 1.752-6.319 2.233-8.71 1.016-4.461-2.271-4.814-9.341-.66-13.239 2.629-2.467 3.35-2.751 6.568-2.587 2.32.118 3.166.38 4.146 1.281Zm5.362 7.133c0 7.823.068 8.538.82 8.538.751 0 .821-.697.821-8.192v-8.192l1.346-.151c2.982-.336 4.982.942 4.982 3.184 0 1.656-1.469 3.198-3.047 3.198-.644 0-1.172.157-1.172.35 0 .192 1.213 2.133 2.696 4.312 1.482 2.179 2.911 4.33 3.176 4.78.264.45.854.742 1.311.649.682-.139.236-1.014-2.501-4.899-2.124-3.016-3.08-4.731-2.637-4.731.383 0 1.345-.538 2.138-1.195 1.911-1.583 2-3.844.207-5.232-.995-.772-1.904-.957-4.688-.957h-3.452v8.538Zm12.657 0c0 7.282.104 8.538.703 8.538.6 0 .703-1.256.703-8.538s-.103-8.538-.703-8.538c-.599 0-.703 1.256-.703 8.538Zm4.688 0v8.538h2.407c3.35 0 5.885-.85 7.231-2.424 2.145-2.511 1.095-5.766-2.229-6.907l-1.377-.473 1.425-.852c.784-.469 1.555-1.364 1.714-1.988.741-2.907-1.358-4.432-6.1-4.432h-3.071v8.538Zm12.188 0v8.538h5.157c2.836 0 5.157-.18 5.157-.4 0-.22-1.442-.298-3.205-.174-4.929.347-5.233.054-5.233-5.036v-4.193l2.812.201c1.547.109 2.813.031 2.813-.176 0-.206-1.266-.375-2.813-.375h-2.812v-6.563l3.516.175c1.933.096 3.515.016 3.515-.18 0-.195-2.004-.355-4.453-.355h-4.454v8.538Zm-5.73-7.358c.727.501 1.043 1.19 1.043 2.274 0 2.038-1.767 3.469-4.283 3.469h-1.812v-2.923c0-1.608.141-3.062.313-3.231.587-.578 3.696-.309 4.739.411Zm.574 7.263c1.74.867 2.415 2.569 1.837 4.632-.639 2.278-2.116 3.168-4.961 2.989l-2.267-.142-.136-4.038-.135-4.038 2.245.007c1.235.003 2.772.269 3.417.59Z" fill="#fff" opacity=".5"/></svg>