<svg width="306" height="144" fill="none" xmlns="http://www.w3.org/2000/svg"><path fill-rule="evenodd" clip-rule="evenodd" d="M152.297 18.13c0 .07.067.19.15.264.131.117.313.14 1.443.182.711.026 1.469.08 1.685.118.216.039.592.072.837.075l.446.005v-.684l-.374-.045c-.206-.024-1.232-.045-2.281-.045-1.805 0-1.906.006-1.906.13Zm-6.185.119a.346.346 0 0 1-.226.103c-.182 0-.247.235-.129.474.077.159.135.19.307.171.116-.012.516-.038.888-.057.373-.019.708-.064.745-.1.037-.036.316-.066.619-.066.62 0 .774-.085.774-.427v-.207l-1.443.003c-1.174.002-1.46.022-1.535.106Zm-2.224.335c0 .05.106.194.235.317.179.171.299.225.499.225h.264v-.634h-.499c-.362 0-.499.025-.499.092Zm-3.912.789c-.651.144-1.268.355-2.296.785-.828.346-1.655.577-2.842.796a4.128 4.128 0 0 0-.926.32c-.255.13-.672.287-.927.35a5.02 5.02 0 0 0-.926.358c-.255.134-1.008.517-1.675.851-2.42 1.214-4.455 2.417-6.368 3.764-.846.595-1.146.77-1.323.77-.424 0-1.952 1.101-3.425 2.468a38.78 38.78 0 0 1-1.639 1.426c-.438.353-.841.74-.914.875-.098.186-.244.297-.615.467-.458.21-.502.252-.754.708-.147.266-.352.533-.457.592-.11.062-.245.244-.321.431-.078.191-.354.558-.674.896a9.64 9.64 0 0 0-.933 1.19c-.443.699-.84 1.035-1.384 1.175l-.351.09-.487.987c-.311.632-.655 1.203-.956 1.586-.434.551-.686.948-1.526 2.395-.714 1.23-2.041 2.694-3.063 3.38-.308.207-.476.381-.598.62a8.394 8.394 0 0 0-.609 1.716c-.083.395-.088.402-.655.77-.448.29-.607.44-.737.693-.386.753-1.067 2.543-1.461 3.84l-.277.91.28.504c.154.277.28.552.28.61 0 .166-.667 1.064-.948 1.275-.209.158-.268.262-.336.597a173.62 173.62 0 0 1-.393 1.778 93.646 93.646 0 0 0-1.063 5.495c-.785 4.797-.848 6.542-.391 10.847 1.4 13.195 5.396 23.332 12.382 31.415 1.979 2.29 6.535 6.566 9.512 8.928a42.31 42.31 0 0 0 5.624 3.745 36.05 36.05 0 0 1 1.221.703c.279.176.423.219.736.219.36 0 .411-.022.672-.282.166-.166.349-.282.446-.282.247 0 2.201.823 2.334.982.064.077.139.323.167.547.115.913.38 1.165 1.658 1.575.679.218 1.068.301 1.535.328.504.03.639.061.694.163.134.247.62.351 1.958.416 1.027.05 1.475.107 2.245.283 1.282.295 1.697.396 2.459.599.449.12.835.172 1.291.175.413.002.746.043.91.11.142.059.651.205 1.131.325.906.226 2.358.368 3.722.363.746-.003 1.336-.178 1.379-.409.076-.405.292-.404.692.002.3.306.327.317.735.317.383 0 .442-.021.602-.209.098-.115.2-.34.227-.5l.05-.29.331.044c.916.123 1.149.125 1.194.01.038-.098.255-.112 1.731-.112h1.688l.318.323.317.322.535-.046a14.54 14.54 0 0 1 1.97-.024c.341.019.468-.003.575-.099.112-.1.272-.123.851-.123.667 0 .723-.012.879-.177.151-.158.224-.176.714-.176.586 0 1.451-.186 1.9-.408.15-.074.493-.155.761-.179.591-.052.893-.21 1.067-.559.13-.261.134-.262.57-.262.355 0 .577-.057 1.153-.294.391-.162.817-.384.945-.492.339-.289.567-.389 1.328-.584.674-.174.978-.295 1.325-.532.098-.066.323-.143.499-.17a2.47 2.47 0 0 0 .677-.246c.51-.284 1.403-.662 2.098-.89.33-.108.791-.322 1.025-.476a7.234 7.234 0 0 1 1.563-.75c.147-.047.3-.146.341-.22.083-.155.427-.347.62-.347.072 0 .288-.158.48-.351.271-.272.453-.383.816-.499.775-.247 1.193-.472 1.342-.724.176-.294.334-.412 1.585-1.189a35.127 35.127 0 0 0 1.4-.908c.201-.147.45-.288.552-.314.102-.025.185-.069.185-.097 0-.128.546-.571.811-.658.358-.117.711-.547 1.096-1.334.229-.467.305-.56.536-.652.147-.059.313-.107.367-.107.055 0 .253-.214.44-.475.398-.556.413-.569.745-.624.212-.035.281-.095.427-.369.4-.755 1.556-1.649 2.478-1.919.269-.078.375-.178.837-.784.569-.746.619-.906.427-1.359-.099-.234-.096-.247.089-.376a5.318 5.318 0 0 1 1.197-.574c.185-.055.334-.157.407-.278.063-.106.26-.331.438-.502.3-.288.323-.336.323-.667 0-.314.05-.436.41-.998.397-.62.42-.642.728-.689.234-.036.388-.119.588-.316l.27-.267v-.679c0-.414.037-.769.096-.907.187-.438.662-.943 1.074-1.143a3.98 3.98 0 0 0 .813-.588c.344-.327.458-.5.646-.974l.228-.577-.156-.304a4.17 4.17 0 0 0-.334-.533l-.177-.23.161-.44a7.27 7.27 0 0 1 .903-1.724l.316-.44h.628c.525 0 .659-.024.814-.144.213-.167.331-.522.332-1.003 0-.185.048-.45.107-.59.06-.142.107-.466.107-.74 0-.598.17-.968.57-1.242.154-.105.281-.236.282-.291.006-.197.521-2.307.767-3.14.138-.465.276-1.02.309-1.232.032-.213.155-.658.273-.987.306-.852.438-1.684.494-3.099.044-1.096.066-1.256.2-1.444.605-.847.763-1.555.7-3.13-.037-.926-.026-1.232.056-1.483.076-.232.099-.601.085-1.374a16.06 16.06 0 0 1 .057-1.69c.077-.66.016-2.347-.19-5.283-.104-1.48-.152-1.772-.434-2.66a5.36 5.36 0 0 1-.208-1.02c-.04-.558-.525-2.886-.784-3.761-.188-.634-.751-2.02-.932-2.293-.058-.087-.105-.288-.105-.447 0-.308-.079-.508-.293-.741-.074-.08-.228-.476-.343-.88a15.815 15.815 0 0 0-.457-1.34c-.481-1.176-2.182-4.403-3.504-6.651-1.064-1.809-1.885-3.274-2.367-4.227-.591-1.166-.929-1.729-1.354-2.255a7.462 7.462 0 0 1-.653-1.02c-.732-1.403-1.52-2.454-2.121-2.83-.547-.34-.854-.684-1.206-1.345-.305-.575-.758-1.042-1.248-1.287-.187-.094-.385-.234-.44-.313-.056-.078-.307-.273-.558-.433-.251-.16-1.029-.734-1.728-1.276-1.241-.961-4.445-3.135-5.126-3.478-.187-.094-.808-.345-1.379-.557l-1.038-.385h-3.929l-.816.427c-1.507.79-2.071 1.175-2.875 1.964-1.169 1.148-2.554 3.063-2.594 3.586a1.33 1.33 0 0 1-.108.439c-.11.204-.133.45-.181 1.98-.028.9-.015 1.29.047 1.404.047.087.098.516.113.954.031.91.2 1.48.818 2.77.643 1.342 1.175 2.055 1.755 2.351.136.07.232.195.287.376.102.335.477.705.843.829.247.083.294.14.447.532.106.276.275.54.452.71.338.325 1.201.767 1.496.767.116 0 .521.122.899.273.378.15.928.331 1.222.403.385.095.624.204.855.39.368.294.789.515 1.121.586.248.052.59.396.59.593 0 .07.224.288.516.504.284.21 1.623 1.465 2.975 2.787 1.716 1.678 2.534 2.431 2.709 2.493.18.063.31.186.463.439.228.376 1.007 1.142 1.234 1.213.093.03.152.133.183.322.081.504.324 1.025.724 1.553.466.616.971 1.455 1.141 1.897.068.175.234.414.371.532.201.173.274.314.383.738.074.288.23.726.347.973.148.313.213.56.214.812.002.452.186.856.528 1.16.256.228.264.248.256.704-.01.627.039 1.022.151 1.221.08.141.131.495.229 1.573.011.117.082.338.157.493.116.237.135.412.121 1.101-.013.578.012.89.082 1.057.081.191.095.634.071 2.28-.018 1.185-.062 2.14-.107 2.274-.042.128-.057.284-.033.346.025.063.013.355-.026.649a93.24 93.24 0 0 0-.184 1.556c-.283 2.559-1.227 6.226-2.295 8.91-1.266 3.184-4.007 7.978-6.325 11.062-2.468 3.284-5.741 6.293-10.121 9.307-4.576 3.148-9.547 5.543-13.931 6.712-3.721.992-8.372 1.435-12.649 1.205-4.531-.245-7.248-.696-9.558-1.589-.52-.201-.935-.318-1.128-.318a1.35 1.35 0 0 1-.618-.172c-.171-.094-.632-.254-1.024-.355-1.947-.502-3.67-1.227-5.515-2.318-.416-.246-.92-.5-1.119-.564-.227-.073-.396-.178-.451-.279-.11-.202-.435-.397-.662-.397-.275 0-3.093-2.049-5.187-3.772-3.131-2.575-5.221-4.886-7.357-8.135-1.762-2.68-3.042-5.168-4.461-8.675-1.284-3.174-2.005-5.903-2.501-9.46-.391-2.808-.385-3.635.069-9.72.186-2.502.481-4.117 1.242-6.798 1.559-5.492 5.273-12.51 8.759-16.549 2.135-2.473 4.409-4.32 7.979-6.475 1.876-1.133 3.516-2.338 5.019-3.688.486-.436.955-.85 1.043-.92.28-.226 5.449-1.97 9.092-3.07 2.106-.636 3.965-1.026 5.772-1.212.451-.046.85-.112.887-.145.107-.095 1.496-.069 2.356.045.431.057 1.12.105 1.532.108.411.002.892.034 1.069.071.176.037.575.084.885.105.311.02.613.076.67.123.102.083.294.086 2.517.03.416-.01.576.013.677.1a1.4 1.4 0 0 0 .4.2c.147.047.301.146.341.22.065.12.156.135.813.135.407 0 .899-.036 1.093-.08.43-.098.575-.065 1.11.254.378.225.469.249.94.249.287 0 .542-.032.566-.07.073-.117.433-.08.558.057.064.07.152.22.194.335.047.125.219.296.437.435.289.184.432.23.734.23.386 0 .529-.085.565-.332.01-.07.191-.223.404-.34l.386-.214.021-.404c.018-.338.001-.41-.107-.441-.07-.02-.247-.1-.392-.175-.32-.167-.644-.176-.878-.024-.168.108-.186.104-.427-.105-.326-.283-.734-.487-1.086-.542-.235-.038-.363-.134-.795-.6-.43-.466-.551-.557-.735-.557-.167 0-.291-.074-.512-.303-.427-.443-.471-.466-1.093-.575a5.323 5.323 0 0 1-1.051-.315c-.555-.248-.876-.269-1.61-.104-.411.092-.56.097-.851.028-.436-.103-1.126-.535-1.379-.863-.162-.21-.241-.25-.55-.28-.232-.022-.412-.085-.505-.176-.19-.189-.117-.417.152-.475a.736.736 0 0 0 .332-.185c.166-.182.091-.31-.347-.591-.261-.168-.338-.262-.371-.458-.089-.534-.381-1.1-.857-1.661l-.234-.276-.988-.053c-2.406-.128-2.825-.133-3.434-.043-.577.086-.93.1-1.722.065-.297-.013-1.011.04-2.601.192-.428.041-.736.113-.925.215-.183.098-.41.152-.636.152-.432 0-1.239.132-1.432.235-.078.041-.303.1-.499.13l-.786.117c-.237.034-.526.111-.642.17-.276.139-.884.264-1.285.264-.214 0-.461.07-.75.215a11.05 11.05 0 0 1-1.156.455c-.674.223-.77.237-1.367.2-.633-.04-.647-.038-1.123.214-.274.144-.583.254-.717.254-.17 0-.293.06-.444.219-.115.12-.409.36-.653.533-.363.258-.529.327-.91.38-.287.04-.569.133-.732.24a2.787 2.787 0 0 1-.516.257c-.137.046-.355.19-.484.32-.245.245-.423.288-.668.158-.142-.075-.141-.081.058-.29.26-.271 1.075-.818 1.639-1.1.241-.12.498-.292.57-.382.073-.09.238-.207.367-.259a3.09 3.09 0 0 0 .516-.297c.155-.11.343-.201.419-.201.239 0 .565-.345.832-.88l.258-.516.489-.155c.515-.164.595-.162 1.456.039.274.064.723.121.997.127l.499.011.021-.546c.026-.674.124-.768.78-.749.494.015.589-.026.589-.25s-.155-.332-.535-.375c-.298-.033-.339-.016-.566.22-.134.141-.293.256-.354.256-.13 0-.683-.211-.683-.26 0-.02.1-.127.221-.24.167-.154.291-.204.502-.204.31 0 .736-.187.945-.415.108-.119.219-.149.548-.149.227 0 .432-.031.456-.07.025-.039.115-.07.202-.07.086 0 .276-.064.423-.141.146-.078.376-.141.51-.141.352 0 .641-.342.374-.444-.262-.099-1.047-.107-1.466-.014Zm4.272.218c-.421.112-.655.272-.601.41.055.143.509.323.814.323h.282V19.9c0-.232-.024-.42-.053-.418a6.923 6.923 0 0 0-.442.108Zm14.979 3.975c-.133.053-.16.118-.16.381 0 .276.026.331.196.417.385.196.761.256 1.318.21.505-.04.552-.057.552-.197 0-.184-.273-.395-.876-.677-.45-.21-.742-.248-1.03-.134Zm-2.53.92c-.08.086-.124.248-.124.451v.317h.416c.416 0 .417.001.963.493.425.384.596.494.764.494.179 0 .233-.042.319-.245.104-.245.136-.859.06-1.139-.077-.284-.861-.52-1.703-.512-.466.005-.593.03-.695.14Zm2.726 1.011c0 .39.023.47.159.564.232.16.544.134.814-.07.197-.149.239-.227.239-.447 0-.393-.159-.5-.736-.5h-.476v.453Zm2.662.287c-.065.168.11.75.3.996.103.134.307.271.511.343.187.067.511.2.72.297.415.191.741.186 1.052-.016.132-.085.171-.173.171-.385 0-.311-.144-.497-.386-.497-.391 0-1.359-.441-1.601-.73-.129-.153-.708-.16-.767-.008Zm-18.881 1.132c.107.276.036.421-.35.716-.305.233-.453.3-.665.3-.491 0-.728-.513-.363-.787.417-.313 1.289-.459 1.378-.23Zm-13.605.857c-.177.42-.525.607-1.307.698-.329.039-.35.03-.568-.23-.242-.29-.287-.45-.127-.45.055 0 .175-.063.267-.14.146-.12.28-.138 1.007-.14l.838-.002-.11.264Zm39.207 2.882c-.091.09-.047.627.063.782.094.132.178.157.535.157h.423v-.347c0-.291-.03-.37-.188-.493-.183-.143-.724-.207-.833-.1Zm-2.934 25.875c-.785.082-1.369.253-2.138.628-1.274.621-2.202 1.54-2.816 2.787-.529 1.075-.603 1.417-.6 2.782.003 1.082.017 1.204.204 1.761.359 1.072.839 1.853 1.583 2.578 1.139 1.109 2.478 1.688 4.088 1.766 1.312.065 2.432-.21 3.594-.881.562-.325 1.535-1.257 1.939-1.858 1.275-1.895 1.364-4.454.227-6.465-1.179-2.084-3.661-3.348-6.081-3.098Zm-23.195 6.092v6.022h4.988v-1.76h-3.064V56.598h-1.924v6.023Zm-7.793-5.899c-.183.293-5.095 11.818-5.053 11.858.072.069 1.922.107 1.989.04.029-.027.344-.771.7-1.651l.648-1.601 2.142-.019 2.143-.018.697 1.62.697 1.622h1.024c.563 0 1.024-.013 1.024-.028 0-.016-1.118-2.686-2.485-5.935l-2.486-5.906-.501-.02c-.276-.012-.518.005-.539.038Zm14.705 5.97v6.022h1.657c1.94-.001 2.75-.1 3.681-.445.912-.338 1.38-.636 2.071-1.316.894-.88 1.316-1.668 1.585-2.955.261-1.245.104-2.902-.378-3.985-.522-1.172-1.534-2.177-2.739-2.716-1.045-.469-2.144-.627-4.363-.628h-1.514v6.022Zm17.951-4.224c.725.169 1.398.556 2.009 1.156.846.831 1.276 1.839 1.276 2.99 0 1.176-.414 2.148-1.28 3.003-.875.866-1.829 1.263-3.031 1.263-1.222 0-2.155-.395-3.068-1.298-.879-.87-1.244-1.737-1.244-2.961 0-.733.127-1.288.438-1.911.528-1.06 1.666-1.964 2.825-2.241.546-.131 1.515-.132 2.075-.002Zm-14.078.135c1.09.193 2.072.803 2.632 1.635.517.77.651 1.234.654 2.277.004 1.076-.162 1.66-.691 2.442-.858 1.267-2.19 1.915-3.956 1.923l-.588.002v-8.382l.695.003a9.02 9.02 0 0 1 1.254.1Zm-17.397 3.259c.38.917.682 1.678.669 1.69-.012.013-.649.014-1.416.004l-1.393-.02.688-1.672c.379-.92.704-1.672.724-1.672.02.001.347.753.728 1.67Zm-16.726 10.478c-2.463.538-4.26 2.284-4.856 4.72-.178.73-.164 2.014.031 2.797.543 2.177 2.21 3.88 4.412 4.51.735.21 2.432.227 3.156.031.447-.12 1.898-.785 2.158-.988.114-.089.124-.225.107-1.416l-.02-1.318-.249.33c-.481.64-1.457 1.248-2.356 1.469-.583.143-1.68.148-2.205.01-2.094-.55-3.532-2.646-3.212-4.684.228-1.45 1.034-2.599 2.26-3.219.786-.398 1.144-.48 2.057-.476.662.004.858.032 1.264.185.726.273 1.234.599 1.886 1.212l.591.555-.035-.414a51.181 51.181 0 0 1-.079-1.32l-.044-.904-.422-.27a6.297 6.297 0 0 0-2-.803c-.659-.134-1.848-.137-2.444-.007Zm11.577 0c-2.013.397-3.817 1.896-4.56 3.788a6.287 6.287 0 0 0 .172 4.943c.613 1.304 1.888 2.5 3.239 3.04.888.354 1.26.416 2.47.412 1.048-.004 1.19-.02 1.746-.2 2.061-.666 3.486-2.075 4.175-4.128.186-.557.201-.68.204-1.761.004-1.337-.067-1.675-.571-2.712-.869-1.788-2.473-3.013-4.438-3.387-.637-.121-1.806-.119-2.437.005Zm31.331.007c-1.185.261-2.119.752-2.986 1.57-.658.621-1.031 1.135-1.406 1.938-.415.888-.535 1.47-.53 2.579.004 1.124.115 1.632.565 2.58.377.795.717 1.255 1.408 1.902 1.262 1.183 2.75 1.71 4.597 1.628 3.06-.136 5.486-2.408 5.858-5.487.141-1.165-.063-2.261-.634-3.405-.776-1.557-2.042-2.619-3.781-3.172-.516-.164-.754-.197-1.604-.217-.715-.018-1.136.006-1.487.084ZM140.396 78.4v5.952h1.996v-4.84l.796-.047c1.328-.08 2.028-.33 2.738-.98.799-.731 1.136-1.625 1.079-2.868-.052-1.166-.449-1.94-1.283-2.507-.783-.532-1.524-.662-3.763-.662h-1.563V78.4Zm8.837-.008v5.96h1.995v-4.839l.766-.044c1.418-.081 2.249-.411 2.959-1.175.607-.653.905-1.464.906-2.468.003-1.657-.833-2.774-2.403-3.212-.316-.089-.85-.123-2.317-.148l-1.906-.033v5.96Zm22.59.008v5.952h5.059V82.59h-3.135V72.448h-1.924V78.4Zm11.221-5.878c-.028.044-1.2 2.7-2.605 5.902l-2.554 5.822.443.045c.243.024.715.047 1.048.051l.606.007.653-1.601.652-1.601 2.198-.017 2.198-.016.68 1.566.68 1.566 1.048.02c.576.01 1.048.01 1.048 0 0-.011-1.135-2.667-2.522-5.901l-2.521-5.882-.501-.02c-.319-.014-.519.008-.551.059Zm-49.471 1.776a4.25 4.25 0 0 1 1.718 1.108c.518.542.925 1.272 1.085 1.945.157.661.105 1.797-.111 2.403-.418 1.175-1.468 2.213-2.658 2.627-.618.216-1.84.27-2.471.11-1.235-.312-2.205-1.08-2.817-2.23-.361-.681-.487-1.289-.443-2.143.058-1.144.432-1.974 1.256-2.788a4.339 4.339 0 0 1 1.938-1.123c.732-.196 1.821-.157 2.503.091Zm31.269-.034c1.35.472 2.369 1.446 2.775 2.653.546 1.621.151 3.267-1.071 4.474-.814.803-1.8 1.2-2.982 1.2-1.265 0-2.195-.381-3.074-1.26-.617-.616-.935-1.161-1.14-1.952a4.22 4.22 0 0 1 1.59-4.44c.578-.421.882-.57 1.501-.736.656-.176 1.806-.147 2.401.061Zm-20.856.115c.508.118.741.279.956.659.335.591.266 1.499-.147 1.965-.375.422-.696.537-1.602.573l-.801.031V74.28l.588.001c.323 0 .776.045 1.006.099Zm8.715-.022c.249.043.556.147.683.231.683.455.818 1.72.256 2.394-.364.436-.692.557-1.61.594l-.802.031V74.28h.511c.281 0 .714.035.962.078Zm31.539 3.251c.382.9.695 1.661.695 1.69 0 .029-.642.053-1.426.053-.784 0-1.425-.023-1.425-.05 0-.093 1.383-3.331 1.422-3.33.021 0 .352.737.734 1.637Zm18.113 6.362c.064.254-.031 1.022-.148 1.19-.053.076-.097.284-.097.46 0 .247-.127.61-.542 1.552a171.3 171.3 0 0 0-1.464 3.484c-.928 2.27-1.721 3.87-3.007 6.071a31.411 31.411 0 0 0-.703 1.255c-.118.24-.211.337-.352.365-.153.03-.328.24-.857 1.033-.365.548-.899 1.27-1.188 1.604a32.938 32.938 0 0 0-1.217 1.55c-.382.518-.824 1.037-.984 1.153-.225.164-.282.246-.254.367.029.126-.127.31-.843.986a471.21 471.21 0 0 0-2.342 2.239 50.156 50.156 0 0 1-2.781 2.463 112.91 112.91 0 0 0-3.637 3.03c-.243.214-.477.389-.521.389-.25 0-1.025.465-1.409.845-.372.367-.526.461-1.165.708a9.603 9.603 0 0 0-1.366.679c-.346.218-.698.391-.783.386-.091-.006-.199.061-.268.164-.166.252-.44.408-.816.466-.592.092-1.027.298-1.419.672-.262.25-.453.371-.632.4-.141.022-.312.09-.379.15-.068.061-.312.158-.544.218a6.19 6.19 0 0 0-.874.316c-.53.243-.651.257-.651.074 0-.086.122-.204.338-.328.187-.106.451-.28.588-.386.138-.105.458-.244.713-.308.495-.124.838-.307 2.352-1.253a95.162 95.162 0 0 1 2.592-1.532c1.872-1.066 3.126-1.869 4.381-2.801.484-.359 1.02-.715 1.191-.79.512-.224.953-.554 1.741-1.305a43.968 43.968 0 0 1 1.318-1.203 55.455 55.455 0 0 0 1.642-1.511c.59-.562 1.409-1.339 1.82-1.726.569-.537.811-.823 1.012-1.198.184-.344.361-.563.586-.724.176-.128.454-.397.616-.599.275-.342.702-1.122.702-1.283 0-.039.144-.16.319-.27.423-.263.572-.449 1.182-1.469.284-.473.859-1.385 1.278-2.026a89.31 89.31 0 0 0 1.276-2.01c.283-.464.62-.94.749-1.057.28-.253.479-.623.644-1.198a5.23 5.23 0 0 1 .438-.96c.376-.638.8-1.586 1.035-2.315a5.15 5.15 0 0 1 .406-.916c.446-.73.883-1.71 1.018-2.28.2-.847.846-2.662 1.013-2.844.186-.204.236-.2.293.023Zm-31.931 34.43a1.695 1.695 0 0 1-.452.361c-.331.164-1.126.388-1.375.388h-.199l.198-.245c.26-.323 1.25-.713 1.864-.735l.167-.006-.203.237Z" fill="#fff" opacity=".5"/></svg>