<svg width="306" height="144" fill="none" xmlns="http://www.w3.org/2000/svg"><path fill-rule="evenodd" clip-rule="evenodd" d="M119 54.792c0 35.309.013 36.906.325 39.626.179 1.56.413 3.248.52 3.753.97 4.603 2.924 8.024 5.956 10.433 2.759 2.192 7.212 3.607 12.175 3.867l2.099.111-.044-11.506c-.024-6.329-.024-14.472 0-18.098l.044-6.59 2.418 2.665c3.421 3.773 3.489 3.85 4.887 5.423.692.78 1.299 1.457 1.347 1.502a2261.9 2261.9 0 0 1 7.973 8.918l2.937 3.275a769.14 769.14 0 0 0 3.155 3.508c.212.229 1.233 1.374 2.268 2.543l1.883 2.126 10.118.004c8.958.003 10.67-.058 9.992-.359-.07-.03-.693-.694-1.385-1.475a411.94 411.94 0 0 0-1.428-1.604c-.092-.101-.631-.702-1.197-1.336-6.91-7.736-10.434-11.673-11.062-12.359-.092-.1-.621-.701-1.175-1.334a176.981 176.981 0 0 0-3.293-3.658c-.67-.725-1.398-1.544-3.928-4.416a96.412 96.412 0 0 0-1.466-1.6 35.013 35.013 0 0 1-1.29-1.446c-.329-.415-.329-.417.037-.823.202-.224.934-1.044 1.627-1.823a206.52 206.52 0 0 1 1.428-1.597 555.19 555.19 0 0 0 2.518-2.814c.282-.317 3.011-3.342 3.191-3.536.092-.1.659-.732 1.26-1.406.6-.673 1.167-1.305 1.259-1.405.092-.1.425-.482.74-.85.315-.367 1.19-1.344 1.946-2.17.756-.827 1.67-1.842 2.031-2.255.361-.414.697-.79.746-.835.049-.046 1.331-1.474 2.849-3.174 1.518-1.7 2.801-3.127 2.85-3.173.049-.046.655-.723 1.346-1.504.692-.78 1.541-1.72 1.888-2.087.346-.368.631-.725.632-.794.001-.069-4.554-.125-10.122-.125h-10.124l-.53.626c-.718.849-1.296 1.5-2.034 2.297-.34.367-2.129 2.36-3.974 4.426a818.057 818.057 0 0 1-3.441 3.841c-.048.046-1.596 1.775-3.44 3.842a597.077 597.077 0 0 1-3.444 3.842c-.05.046-1.027 1.135-2.171 2.421a326.818 326.818 0 0 1-2.852 3.174c-.425.46-1.339 1.473-2.032 2.252-.692.78-1.399 1.57-1.57 1.754-.171.185-.501.58-.734.88-.232.298-.489.542-.571.542-.087 0-.132-12.204-.106-29.145L140.075 18H119v36.792Zm.71 64.226c-.164.106-.203.918-.168 3.467l.046 3.329h1.175l.051-1.166c.046-1.073.32-1.757.703-1.757.062 0 .584.676 1.159 1.503l1.046 1.503h.839c.979 0 1.035.176-.654-2.072-.684-.91-1.273-1.737-1.31-1.837-.037-.101.498-.774 1.188-1.497.691-.722 1.21-1.389 1.152-1.48-.057-.092-.418-.132-.802-.089-.595.066-.847.234-1.699 1.128a265.86 265.86 0 0 1-1.253 1.309c-.225.23-.261.115-.336-1.068-.08-1.265-.103-1.327-.504-1.369-.23-.024-.515.02-.633.096Zm6.459-.029c-.064.064-.116 1.646-.116 3.516v3.401l2.477-.046 2.477-.046v-1.17l-1.889-.047-1.89-.047v-1.659h3.191v-1.157l-1.553-.048-1.554-.048v-1.336l1.815-.048 1.815-.047-.051-.621-.052-.62-2.277-.047c-1.252-.025-2.329.006-2.393.07Zm5.668.107c-.045.118.396 1.678.98 3.466l1.063 3.252h1.433l.719-2.172c1.134-3.425 1.44-4.399 1.44-4.586 0-.096-.288-.174-.641-.174-.723 0-.618-.216-1.644 3.382-.255.896-.524 1.629-.598 1.629-.073 0-.181-.207-.239-.46-.286-1.249-1.309-4.315-1.475-4.423-.306-.199-.948-.145-1.038.086Zm6.513-.078c-.164.106-.203.918-.168 3.467l.046 3.329h1.175v-6.848l-.42-.044c-.231-.024-.516.02-.633.096Zm2.351.004c-.164.103-.203.912-.168 3.463l.046 3.329h1.175l.084-2.339.084-2.338.656 1.169c.36.643.97 1.695 1.355 2.338.699 1.167.702 1.17 1.444 1.17h.743l.046-3.387c.049-3.678.042-3.708-.881-3.477-.413.103-.415.113-.461 2.398l-.047 2.294-.443-.751a72.668 72.668 0 0 1-.902-1.587c-.85-1.544-1.14-2.003-1.4-2.213-.291-.235-1.009-.273-1.331-.069Zm8.769.074c-.046.117-.062 1.677-.037 3.465l.046 3.253.63.051.629.052v-2.298c0-2.437.122-2.651.558-.979.144.551.399 1.491.567 2.088l.306 1.086.69.05c.547.04.709-.013.78-.251.05-.165.32-1.155.602-2.199.281-1.045.553-1.941.603-1.991.051-.05.092.936.092 2.191v2.283h1.344v-3.406c0-3.745.039-3.612-1.063-3.606-.761.003-.963.187-1.212 1.104l-.58 2.15c-.387 1.441-.586 1.798-.729 1.311-.71-2.411-1.118-3.913-1.118-4.116 0-.325-.359-.452-1.279-.452-.452 0-.779.084-.829.214Zm8.027-.103c-.273.109-.289 4.103-.021 5.162.47 1.858 2.959 2.479 4.358 1.088.656-.653.825-1.468.826-3.978l.001-2.21-.419-.104c-.879-.22-.924-.102-.927 2.39-.003 2.536-.133 3.016-.888 3.265-.616.204-1.437-.129-1.642-.667-.085-.221-.154-1.404-.154-2.628 0-1.876-.042-2.242-.266-2.328a1.104 1.104 0 0 0-.868.01Zm6.247.103c-.046.117-.062 1.677-.037 3.465l.046 3.253h1.175l.084-1.297c.046-.713.141-1.295.21-1.294l1.008.004c1.246.004 1.371.127 1.469 1.453l.084 1.134.652.053.652.053-.078-1.346c-.056-.954-.163-1.437-.368-1.663-.275-.302-.268-.34.14-.778.918-.985.315-2.664-1.087-3.029-1.068-.278-3.844-.284-3.95-.008Zm6.586-.103c-.062.062-.112 1.64-.112 3.508v3.396h1.161l.049-1.211.049-1.211 1.184-.083c1.934-.137 2.69-.856 2.559-2.435-.132-1.584-.944-2.052-3.589-2.068-.654-.004-1.24.043-1.301.104Zm5.84.103c-.045.117-.062 1.677-.036 3.465l.045 3.253h1.176l.048-1.462.049-1.461h2.828l.049 1.461.048 1.462h1.176l.045-3.379.046-3.378-.423-.105c-.814-.203-.928-.028-.928 1.428v1.341h-2.854v-1.318c0-1.048-.055-1.339-.266-1.42-.44-.167-.915-.114-1.003.113Zm6.068-.069c-.039.064.393.941.962 1.948 1.011 1.789 1.037 1.867 1.121 3.335l.087 1.504h1.175l.084-1.42c.07-1.182.162-1.538.546-2.126.254-.389.462-.748.462-.799 0-.05.298-.615.662-1.255l.663-1.163-.411-.103c-.824-.205-1.136.041-1.817 1.439-.358.734-.704 1.334-.768 1.334-.064 0-.353-.507-.641-1.127-.288-.62-.595-1.231-.683-1.358-.167-.243-1.317-.41-1.442-.209Zm-14.635 1.454c.326.324.337.743.03 1.16-.181.248-.499.333-1.427.385l-1.194.067v-1.875h1.164c.833 0 1.238.075 1.427.263Zm5.984-.09c.219.117.324.348.323.71-.005.887-.199 1.034-1.376 1.036l-1.057.002-.052-.729c-.029-.401-.013-.833.037-.96.107-.279 1.633-.321 2.125-.059Zm-26.375 4.764v.762l.63-.052c.611-.05.631-.072.681-.761l.052-.71h-1.363v.761Z" fill="#fff" opacity=".5"/></svg>