<svg width="20mm" height="30mm" viewBox="0 0 20 30" xmlns="http://www.w3.org/2000/svg"><g transform="matrix(.8647 0 0 .93162 -50.64 -107.34)"><ellipse style="fill:none;stroke:#af8d70;stroke-width:1.06;stroke-opacity:1" cx="69.964" cy="131.151" rx="2.22" ry="2.169"/><ellipse style="fill:none;stroke:#af8d70;stroke-width:1.06;stroke-opacity:1" cx="65.33" cy="125.873" rx="4.802" ry="4.905"/><ellipse style="fill:none;stroke:#af8d70;stroke-width:1.06;stroke-opacity:1" cx="73.486" cy="125.577" rx="4.131" ry="4.182"/><ellipse style="fill:none;stroke:#af8d70;stroke-width:1.06;stroke-opacity:1" cx="63.923" cy="134.197" rx="4.647" ry="4.337"/><ellipse style="fill:none;stroke:#af8d70;stroke-width:1.06;stroke-opacity:1" cx="71.462" cy="137.118" rx="4.286" ry="4.182"/><ellipse style="fill:none;stroke:#af8d70;stroke-width:1.06;stroke-opacity:1" cx="76.798" cy="132.146" rx="4.182" ry="4.027"/><text xml:space="preserve" style="font-size:3.99171px;line-height:1.25;font-family:sans-serif;letter-spacing:0;fill:#af8d70;fill-opacity:1;stroke:#af8d70;stroke-width:.0997932;stroke-opacity:1" x="68.432" y="123.201" transform="scale(.96291 1.03851)"><tspan style="fill:#af8d70;fill-opacity:1;stroke:#af8d70;stroke-width:.0997932;stroke-opacity:1" x="68.432" y="123.201">g</tspan></text><text xml:space="preserve" style="font-size:3.90964px;line-height:1.25;font-family:sans-serif;letter-spacing:0;fill:#af8d70;fill-opacity:1;stroke:#af8d70;stroke-width:.0977404;stroke-opacity:1" x="75.281" y="122.633" transform="scale(.95754 1.04434)"><tspan style="fill:#af8d70;fill-opacity:1;stroke:#af8d70;stroke-width:.0977404;stroke-opacity:1" x="75.281" y="122.633">l</tspan></text><text xml:space="preserve" style="font-size:4.19238px;line-height:1.25;font-family:sans-serif;letter-spacing:0;fill:#af8d70;fill-opacity:1;stroke:#af8d70;stroke-width:.10481;stroke-opacity:1" x="78.884" y="125.116" transform="scale(.94125 1.06242)"><tspan style="fill:#af8d70;fill-opacity:1;stroke:#af8d70;stroke-width:.10481;stroke-opacity:1" x="78.884" y="125.116">o</tspan></text><text xml:space="preserve" style="font-size:4.77202px;line-height:1.25;font-family:sans-serif;letter-spacing:0;fill:#af8d70;fill-opacity:1;stroke:#af8d70;stroke-width:.119301;stroke-opacity:1" x="76.09" y="126.402" transform="scale(.91823 1.08906)"><tspan style="fill:#af8d70;fill-opacity:1;stroke:#af8d70;stroke-width:.119301;stroke-opacity:1" x="76.09" y="126.402">s</tspan></text><text xml:space="preserve" style="font-size:4.6257px;line-height:1.25;font-family:sans-serif;letter-spacing:0;fill:#af8d70;fill-opacity:1;stroke:#af8d70;stroke-width:.115643;stroke-opacity:1" x="78.111" y="112.377" transform="scale(.8307 1.20381)"><tspan style="fill:#af8d70;fill-opacity:1;stroke:#af8d70;stroke-width:.115643;stroke-opacity:1" x="78.111" y="112.377">s</tspan></text><g style="stroke:#af8d70;stroke-width:1.68312;stroke-miterlimit:4;stroke-dasharray:none;stroke-opacity:1"><path style="fill:none;stroke:#af8d70;stroke-width:1.68312;stroke-linecap:butt;stroke-linejoin:miter;stroke-miterlimit:4;stroke-dasharray:none;stroke-opacity:1" d="M86.385 126.291a2.708 2.708 0 0 0-.295-1.585 2.708 2.708 0 0 0-1.148-1.132 2.708 2.708 0 0 0-1.59-.27 2.708 2.708 0 0 0-1.458.687c-.564.52-.884 1.272-.976 2.034-.092.762.03 1.537.246 2.274.265.907.68 1.783 1.314 2.483.5.552 1.12.978 1.716 1.424a26.31 26.31 0 0 1 2.337 1.972" transform="matrix(.19468 0 0 .21004 53.138 104.223)"/><path style="fill:none;stroke:#af8d70;stroke-width:1.68312;stroke-linecap:butt;stroke-linejoin:miter;stroke-miterlimit:4;stroke-dasharray:none;stroke-opacity:1" d="M86.385 126.291a2.708 2.708 0 0 1 .294-1.585 2.708 2.708 0 0 1 1.149-1.132 2.708 2.708 0 0 1 1.59-.27c.54.073 1.056.317 1.458.687.564.52.884 1.272.975 2.034.092.762-.03 1.537-.245 2.274-.265.907-.68 1.783-1.315 2.483-.5.552-1.12.978-1.716 1.424a26.432 26.432 0 0 0-2.336 1.972" transform="matrix(.19468 0 0 .21004 53.138 104.223)"/></g></g></svg>